<svg xmlns="http://www.w3.org/2000/svg" viewBox="0 0 756 356" width="756"
 height="356" role="img" aria-label="The seats barely move. The people in them do. Posts by kind, FY2016 to FY2025 — three nearly flat lines, while 67 people arrived and 65 left in the last year alone."
 font-family='system-ui, -apple-system, "Segoe UI", sans-serif'>
<rect width="756" height="356" fill="#fcfcfb"/>
<g transform="translate(18,18)">
<text x="0" y="15" font-size="13" font-weight="700" fill="#0b0b0b">The seats barely move. The people in them do</text>
<text x="0" y="31" font-size="10.5" fill="#52514e">Posts by kind, FY2016 to FY2025 — three nearly flat lines, while 67 people arrived and 65 left in the last year alone.</text>
<line x1="46" y1="278.0" x2="544" y2="278.0" stroke="#e1e0d9" stroke-width="1"/><text x="40" y="281.5" font-size="9.5" text-anchor="end" fill="#898781">0</text><line x1="46" y1="223.0" x2="544" y2="223.0" stroke="#e1e0d9" stroke-width="1"/><text x="40" y="226.5" font-size="9.5" text-anchor="end" fill="#898781">30</text><line x1="46" y1="168.0" x2="544" y2="168.0" stroke="#e1e0d9" stroke-width="1"/><text x="40" y="171.5" font-size="9.5" text-anchor="end" fill="#898781">61</text><line x1="46" y1="113.0" x2="544" y2="113.0" stroke="#e1e0d9" stroke-width="1"/><text x="40" y="116.5" font-size="9.5" text-anchor="end" fill="#898781">91</text><line x1="46" y1="58.0" x2="544" y2="58.0" stroke="#e1e0d9" stroke-width="1"/><text x="40" y="61.5" font-size="9.5" text-anchor="end" fill="#898781">122</text><text x="46.0" y="293.0" font-size="9" text-anchor="middle" fill="#898781">16</text><text x="101.3" y="293.0" font-size="9" text-anchor="middle" fill="#898781">17</text><text x="156.7" y="293.0" font-size="9" text-anchor="middle" fill="#898781">18</text><text x="212.0" y="293.0" font-size="9" text-anchor="middle" fill="#898781">19</text><text x="267.3" y="293.0" font-size="9" text-anchor="middle" fill="#898781">20</text><text x="322.7" y="293.0" font-size="9" text-anchor="middle" fill="#898781">21</text><text x="378.0" y="293.0" font-size="9" text-anchor="middle" fill="#898781">22</text><text x="433.3" y="293.0" font-size="9" text-anchor="middle" fill="#898781">23</text><text x="488.7" y="293.0" font-size="9" text-anchor="middle" fill="#898781">24</text><text x="544.0" y="293.0" font-size="9" text-anchor="middle" fill="#898781">25</text><polyline points="46.0,175.1 101.3,173.3 156.7,176.9 212.0,278.0 267.3,171.5 322.7,176.9 378.0,182.3 433.3,176.9 488.7,186.0 544.0,182.3" fill="none" stroke="#184f95" stroke-width="2" stroke-linejoin="round"/><circle cx="46.0" cy="175.1" r="3.2" fill="#184f95"/><circle cx="101.3" cy="173.3" r="3.2" fill="#184f95"/><circle cx="156.7" cy="176.9" r="3.2" fill="#184f95"/><circle cx="212.0" cy="278.0" r="3.2" fill="#184f95"/><circle cx="267.3" cy="171.5" r="3.2" fill="#184f95"/><circle cx="322.7" cy="176.9" r="3.2" fill="#184f95"/><circle cx="378.0" cy="182.3" r="3.2" fill="#184f95"/><circle cx="433.3" cy="176.9" r="3.2" fill="#184f95"/><circle cx="488.7" cy="186.0" r="3.2" fill="#184f95"/><circle cx="544.0" cy="182.3" r="3.2" fill="#184f95"/><text x="552.0" y="186.3" font-size="10.5" fill="#184f95">elected seats</text><polyline points="46.0,153.5 101.3,148.1 156.7,148.1 212.0,278.0 267.3,92.1 322.7,86.7 378.0,122.8 433.3,112.0 488.7,135.4 544.0,135.4" fill="none" stroke="#e08214" stroke-width="2" stroke-linejoin="round"/><circle cx="46.0" cy="153.5" r="3.2" fill="#e08214"/><circle cx="101.3" cy="148.1" r="3.2" fill="#e08214"/><circle cx="156.7" cy="148.1" r="3.2" fill="#e08214"/><circle cx="212.0" cy="278.0" r="3.2" fill="#e08214"/><circle cx="267.3" cy="92.1" r="3.2" fill="#e08214"/><circle cx="322.7" cy="86.7" r="3.2" fill="#e08214"/><circle cx="378.0" cy="122.8" r="3.2" fill="#e08214"/><circle cx="433.3" cy="112.0" r="3.2" fill="#e08214"/><circle cx="488.7" cy="135.4" r="3.2" fill="#e08214"/><circle cx="544.0" cy="135.4" r="3.2" fill="#e08214"/><text x="552.0" y="139.4" font-size="10.5" fill="#e08214">appointed seats</text><line x1="46" y1="278.0" x2="544" y2="278.0" stroke="#c3c2b7" stroke-width="1"/>
</g>
</svg>
