<svg xmlns="http://www.w3.org/2000/svg" viewBox="0 0 676 352" width="676"
 height="352" role="img" aria-label="Three stabilization funds, on one scale. Ending cash: each annual report reading that proved itself, plus the general ledger at FY2025. Dashes span years not yet read"
 font-family='system-ui, -apple-system, "Segoe UI", sans-serif'>
<rect width="676" height="352" fill="#fcfcfb"/>
<g transform="translate(18,18)">
<text x="0" y="15" font-size="13" font-weight="700" fill="#0b0b0b">Three stabilization funds, on one scale</text>
<text x="0" y="31" font-size="10.5" fill="#52514e">Ending cash: each annual report reading that proved itself, plus the general ledger at FY2025. Dashes span years not yet read</text>
<line x1="56" y1="270.0" x2="488" y2="270.0" stroke="#e1e0d9" stroke-width="1"/><text x="50" y="273.5" font-size="9.5" text-anchor="end" fill="#898781">$0k</text><line x1="56" y1="216.5" x2="488" y2="216.5" stroke="#e1e0d9" stroke-width="1"/><text x="50" y="220.0" font-size="9.5" text-anchor="end" fill="#898781">$1.00M</text><line x1="56" y1="163.0" x2="488" y2="163.0" stroke="#e1e0d9" stroke-width="1"/><text x="50" y="166.5" font-size="9.5" text-anchor="end" fill="#898781">$2.00M</text><line x1="56" y1="109.5" x2="488" y2="109.5" stroke="#e1e0d9" stroke-width="1"/><text x="50" y="113.0" font-size="9.5" text-anchor="end" fill="#898781">$3.00M</text><line x1="56" y1="56.0" x2="488" y2="56.0" stroke="#e1e0d9" stroke-width="1"/><text x="50" y="59.5" font-size="9.5" text-anchor="end" fill="#898781">$4.00M</text><line x1="56" y1="270" x2="488" y2="270" stroke="#c3c2b7" stroke-width="1"/><text x="56.0" y="284" font-size="9" text-anchor="middle" fill="#898781">FY14</text><text x="95.3" y="284" font-size="9" text-anchor="middle" fill="#898781">FY15</text><text x="134.5" y="284" font-size="9" text-anchor="middle" fill="#898781">FY16</text><text x="173.8" y="284" font-size="9" text-anchor="middle" fill="#898781">FY17</text><text x="213.1" y="284" font-size="9" text-anchor="middle" fill="#898781">FY18</text><text x="252.4" y="284" font-size="9" text-anchor="middle" fill="#898781">FY19</text><text x="291.6" y="284" font-size="9" text-anchor="middle" fill="#898781">FY20</text><text x="330.9" y="284" font-size="9" text-anchor="middle" fill="#898781">FY21</text><text x="370.2" y="284" font-size="9" text-anchor="middle" fill="#898781">FY22</text><text x="448.7" y="284" font-size="9" text-anchor="middle" fill="#898781">FY24</text><text x="488.0" y="284" font-size="9" text-anchor="middle" fill="#898781">FY25</text><text x="56" y="297" font-size="9" fill="#898781">fiscal year — a tick is a year that PROVED, not every year</text><line x1="56.0" y1="257.8" x2="95.3" y2="257.8" stroke-width="2" stroke-linecap="round" stroke="#2a8c6a"/><line x1="95.3" y1="257.8" x2="134.5" y2="257.8" stroke-width="2" stroke-linecap="round" stroke="#2a8c6a"/><line x1="134.5" y1="257.8" x2="213.1" y2="257.8" stroke-width="2" stroke-linecap="round" stroke-dasharray="3 3" stroke="#2a8c6a"/><line x1="213.1" y1="257.8" x2="291.6" y2="257.7" stroke-width="2" stroke-linecap="round" stroke-dasharray="3 3" stroke="#2a8c6a"/><line x1="291.6" y1="257.7" x2="370.2" y2="257.6" stroke-width="2" stroke-linecap="round" stroke-dasharray="3 3" stroke="#2a8c6a"/><line x1="370.2" y1="257.6" x2="448.7" y2="257.0" stroke-width="2" stroke-linecap="round" stroke-dasharray="3 3" stroke="#2a8c6a"/><line x1="448.7" y1="257.0" x2="488.0" y2="256.7" stroke-width="2" stroke-linecap="round" stroke="#2a8c6a"/><circle cx="56.0" cy="257.8" r="4" fill="#2a8c6a" stroke="#fcfcfb" stroke-width="2"/><circle cx="95.3" cy="257.8" r="4" fill="#2a8c6a" stroke="#fcfcfb" stroke-width="2"/><circle cx="134.5" cy="257.8" r="4" fill="#2a8c6a" stroke="#fcfcfb" stroke-width="2"/><circle cx="213.1" cy="257.8" r="4" fill="#2a8c6a" stroke="#fcfcfb" stroke-width="2"/><circle cx="291.6" cy="257.7" r="4" fill="#2a8c6a" stroke="#fcfcfb" stroke-width="2"/><circle cx="370.2" cy="257.6" r="4" fill="#2a8c6a" stroke="#fcfcfb" stroke-width="2"/><circle cx="448.7" cy="257.0" r="4" fill="#2a8c6a" stroke="#fcfcfb" stroke-width="2"/><circle cx="488.0" cy="256.7" r="4" fill="#2a8c6a" stroke="#fcfcfb" stroke-width="2"/><text x="498.0" y="255.7" font-size="10.5" font-weight="600" fill="#2a8c6a">Zoning Incentive</text><text x="498.0" y="267.7" font-size="9.5" fill="#898781">FY2025 $249k</text><line x1="213.1" y1="257.4" x2="252.4" y2="235.6" stroke-width="2" stroke-linecap="round" stroke="#e08214"/><line x1="252.4" y1="235.6" x2="291.6" y2="219.4" stroke-width="2" stroke-linecap="round" stroke="#e08214"/><line x1="291.6" y1="219.4" x2="448.7" y2="149.4" stroke-width="2" stroke-linecap="round" stroke-dasharray="3 3" stroke="#e08214"/><line x1="448.7" y1="149.4" x2="488.0" y2="131.0" stroke-width="2" stroke-linecap="round" stroke="#e08214"/><circle cx="213.1" cy="257.4" r="4" fill="#e08214" stroke="#fcfcfb" stroke-width="2"/><circle cx="252.4" cy="235.6" r="4" fill="#e08214" stroke="#fcfcfb" stroke-width="2"/><circle cx="291.6" cy="219.4" r="4" fill="#e08214" stroke="#fcfcfb" stroke-width="2"/><circle cx="448.7" cy="149.4" r="4" fill="#e08214" stroke="#fcfcfb" stroke-width="2"/><circle cx="488.0" cy="131.0" r="4" fill="#e08214" stroke="#fcfcfb" stroke-width="2"/><text x="498.0" y="130.0" font-size="10.5" font-weight="600" fill="#e08214">Vehicle/Equipment</text><text x="498.0" y="142.0" font-size="9.5" fill="#898781">FY2025 $2.60M</text><line x1="56.0" y1="200.5" x2="95.3" y2="195.7" stroke-width="2" stroke-linecap="round" stroke="#184f95"/><line x1="95.3" y1="195.7" x2="134.5" y2="189.1" stroke-width="2" stroke-linecap="round" stroke="#184f95"/><line x1="134.5" y1="189.1" x2="173.8" y2="182.7" stroke-width="2" stroke-linecap="round" stroke="#184f95"/><line x1="173.8" y1="182.7" x2="213.1" y2="176.9" stroke-width="2" stroke-linecap="round" stroke="#184f95"/><line x1="213.1" y1="176.9" x2="291.6" y2="164.2" stroke-width="2" stroke-linecap="round" stroke-dasharray="3 3" stroke="#184f95"/><line x1="291.6" y1="164.2" x2="330.9" y2="139.0" stroke-width="2" stroke-linecap="round" stroke="#184f95"/><line x1="330.9" y1="139.0" x2="488.0" y2="101.6" stroke-width="2" stroke-linecap="round" stroke-dasharray="3 3" stroke="#184f95"/><circle cx="56.0" cy="200.5" r="4" fill="#184f95" stroke="#fcfcfb" stroke-width="2"/><circle cx="95.3" cy="195.7" r="4" fill="#184f95" stroke="#fcfcfb" stroke-width="2"/><circle cx="134.5" cy="189.1" r="4" fill="#184f95" stroke="#fcfcfb" stroke-width="2"/><circle cx="173.8" cy="182.7" r="4" fill="#184f95" stroke="#fcfcfb" stroke-width="2"/><circle cx="213.1" cy="176.9" r="4" fill="#184f95" stroke="#fcfcfb" stroke-width="2"/><circle cx="291.6" cy="164.2" r="4" fill="#184f95" stroke="#fcfcfb" stroke-width="2"/><circle cx="330.9" cy="139.0" r="4" fill="#184f95" stroke="#fcfcfb" stroke-width="2"/><circle cx="488.0" cy="101.6" r="4" fill="#184f95" stroke="#fcfcfb" stroke-width="2"/><text x="498.0" y="100.6" font-size="10.5" font-weight="600" fill="#184f95">Stabilization (general)</text><text x="498.0" y="112.6" font-size="9.5" fill="#898781">FY2025 $3.15M</text>
</g>
</svg>
