<svg xmlns="http://www.w3.org/2000/svg" viewBox="0 0 780 340" font-family="system-ui,sans-serif" font-size="11"><rect width="100%" height="100%" fill="#ffffff"/><line x1="70" x2="768" y1="300.0" y2="300.0" stroke="#e5e7eb"/><text x="64" y="304.0" text-anchor="end" fill="#6b7280">$0</text><line x1="70" x2="768" y1="262.9" y2="262.9" stroke="#e5e7eb"/><text x="64" y="266.9" text-anchor="end" fill="#6b7280">$100,000</text><line x1="70" x2="768" y1="225.7" y2="225.7" stroke="#e5e7eb"/><text x="64" y="229.7" text-anchor="end" fill="#6b7280">$200,000</text><line x1="70" x2="768" y1="188.6" y2="188.6" stroke="#e5e7eb"/><text x="64" y="192.6" text-anchor="end" fill="#6b7280">$300,000</text><line x1="70" x2="768" y1="151.4" y2="151.4" stroke="#e5e7eb"/><text x="64" y="155.4" text-anchor="end" fill="#6b7280">$400,000</text><line x1="70" x2="768" y1="114.3" y2="114.3" stroke="#e5e7eb"/><text x="64" y="118.3" text-anchor="end" fill="#6b7280">$500,000</text><line x1="70" x2="768" y1="77.1" y2="77.1" stroke="#e5e7eb"/><text x="64" y="81.1" text-anchor="end" fill="#6b7280">$600,000</text><line x1="70" x2="768" y1="40.0" y2="40.0" stroke="#e5e7eb"/><text x="64" y="44.0" text-anchor="end" fill="#6b7280">$700,000</text><text x="99.1" y="316" text-anchor="middle" fill="#6b7280">FY'16</text><text x="157.2" y="316" text-anchor="middle" fill="#6b7280">FY'17</text><text x="215.4" y="316" text-anchor="middle" fill="#6b7280">FY'18</text><text x="273.6" y="316" text-anchor="middle" fill="#6b7280">FY'19</text><text x="331.8" y="316" text-anchor="middle" fill="#6b7280">FY'20</text><text x="389.9" y="316" text-anchor="middle" fill="#6b7280">FY'21</text><rect x="435.3" y="294.6" width="25.6" height="5.4" fill="#0e8a6b"/><text x="448.1" y="316" text-anchor="middle" fill="#6b7280">FY'22</text><rect x="493.5" y="280.4" width="25.6" height="19.6" fill="#0e8a6b"/><text x="506.2" y="316" text-anchor="middle" fill="#6b7280">FY'23</text><rect x="551.6" y="269.7" width="25.6" height="30.3" fill="#0e8a6b"/><text x="564.4" y="316" text-anchor="middle" fill="#6b7280">FY'24</text><rect x="609.8" y="258.6" width="25.6" height="41.4" fill="#0e8a6b"/><text x="622.6" y="316" text-anchor="middle" fill="#6b7280">FY'25</text><rect x="668.0" y="264.7" width="25.6" height="35.3" fill="#0e8a6b"/><text x="680.8" y="316" text-anchor="middle" fill="#6b7280">FY'26</text><text x="738.9" y="316" text-anchor="middle" fill="#6b7280">FY'27</text><path d="M99.1,125.8 L157.2,118.3 L215.4,118.0 L273.6,144.9 L331.8,134.1 L389.9,158.7 L448.1,189.4 L506.2,177.7 L564.4,175.2 L622.6,134.6 L680.8,89.9 L738.9,58.6" fill="none" stroke="#8e3a95" stroke-width="2.2" stroke-dasharray="5 4"/><path d="M99.1,129.0 L157.2,166.1 L215.4,164.0 L273.6,180.4 L331.8,217.0 L389.9,203.1 L448.1,210.3 L506.2,181.1 L564.4,150.9 L622.6,138.5 L680.8,64.8" fill="none" stroke="#8e3a95" stroke-width="2.2"/><line x1="70" x2="86" y1="15" y2="15" stroke="#8e3a95" stroke-width="2"/><text x="90" y="19" fill="#111827">voted (dashed)</text><line x1="192" x2="208" y1="15" y2="15" stroke="#8e3a95" stroke-width="2"/><text x="212" y="19" fill="#111827">spent</text><rect x="259" y="10" width="10" height="10" fill="#0e8a6b"/><text x="273" y="19" fill="#111827">circuit breaker, transportation, paid</text></svg>
