<svg xmlns="http://www.w3.org/2000/svg" viewBox="0 0 640 422" width="640"
 height="422" role="img" aria-label="The town, 67 other departments: the biggest misses, both directions. $1,279,769 left across 220 accounts, $421,307 overspent across 18 — the 7 and 7 largest"
 font-family='system-ui, -apple-system, "Segoe UI", sans-serif'>
<rect width="640" height="422" fill="#fcfcfb"/>
<text x="0" y="15" font-size="13" font-weight="700" fill="#0b0b0b">The town, 67 other departments: the biggest misses, both directions</text>
<text x="0" y="31" font-size="10.5" fill="#52514e">$1,279,769 left across 220 accounts, $421,307 overspent across 18 — the 7 and 7 largest</text>
<line x1="422.0" y1="50" x2="422.0" y2="380" stroke="#c3c2b7" stroke-width="1"/><rect x="423.0" y="61" width="160.0" height="11" fill="#2a78d6" rx="2"/><text x="196" y="66" font-size="9.5" text-anchor="end" fill="#52514e">School retiree health insurance</text><text x="196" y="76" font-size="7.5" text-anchor="end" fill="#898781" font-family="Menlo, monospace">SCHRETHLTH</text><text x="589.0" y="70" font-size="10" font-weight="700" text-anchor="start" fill="#0b0b0b">$259k</text><rect x="423.0" y="84" width="114.2" height="11" fill="#2a78d6" rx="2"/><text x="196" y="89" font-size="9.5" text-anchor="end" fill="#52514e">Reserve Fund</text><text x="196" y="99" font-size="7.5" text-anchor="end" fill="#898781" font-family="Menlo, monospace">RES FUND</text><text x="543.2" y="93" font-size="10" font-weight="700" text-anchor="start" fill="#0b0b0b">$185k</text><rect x="423.0" y="107" width="47.0" height="11" fill="#2a78d6" rx="2"/><text x="196" y="112" font-size="9.5" text-anchor="end" fill="#52514e">Director salary, Land Use</text><text x="196" y="122" font-size="7.5" text-anchor="end" fill="#898781" font-family="Menlo, monospace">PB DIR</text><text x="476.0" y="116" font-size="10" font-weight="700" text-anchor="start" fill="#0b0b0b">$76k</text><rect x="423.0" y="130" width="37.7" height="11" fill="#2a78d6" rx="2"/><text x="196" y="135" font-size="9.5" text-anchor="end" fill="#52514e">Sergeant salaries</text><text x="196" y="145" font-size="7.5" text-anchor="end" fill="#898781" font-family="Menlo, monospace">SARG SALAR</text><text x="466.7" y="139" font-size="10" font-weight="700" text-anchor="start" fill="#0b0b0b">$61k</text><rect x="423.0" y="153" width="33.4" height="11" fill="#2a78d6" rx="2"/><text x="196" y="158" font-size="9.5" text-anchor="end" fill="#52514e">Medicare</text><text x="196" y="168" font-size="7.5" text-anchor="end" fill="#898781" font-family="Menlo, monospace">MEDI</text><text x="462.4" y="162" font-size="10" font-weight="700" text-anchor="start" fill="#0b0b0b">$54k</text><rect x="423.0" y="176" width="32.8" height="11" fill="#2a78d6" rx="2"/><text x="196" y="181" font-size="9.5" text-anchor="end" fill="#52514e">Patrol salaries</text><text x="196" y="191" font-size="7.5" text-anchor="end" fill="#898781" font-family="Menlo, monospace">PATROL SAL</text><text x="461.8" y="185" font-size="10" font-weight="700" text-anchor="start" fill="#0b0b0b">$53k</text><rect x="423.0" y="199" width="23.2" height="11" fill="#2a78d6" rx="2"/><text x="196" y="204" font-size="9.5" text-anchor="end" fill="#52514e">Audit costs</text><text x="196" y="214" font-size="7.5" text-anchor="end" fill="#898781" font-family="Menlo, monospace">AUDIT COST</text><text x="452.2" y="208" font-size="10" font-weight="700" text-anchor="start" fill="#0b0b0b">$38k</text><rect x="414.2" y="222" width="6.8" height="11" fill="#e34948" rx="2"/><text x="196" y="227" font-size="9.5" text-anchor="end" fill="#52514e">Unemployment compensation</text><text x="196" y="237" font-size="7.5" text-anchor="end" fill="#898781" font-family="Menlo, monospace">UNEMPLOY C</text><text x="408.2" y="231" font-size="10" font-weight="700" text-anchor="end" fill="#0b0b0b">$11k</text><rect x="413.1" y="245" width="7.9" height="11" fill="#e34948" rx="2"/><text x="196" y="250" font-size="9.5" text-anchor="end" fill="#52514e">Planning director salary</text><text x="196" y="260" font-size="7.5" text-anchor="end" fill="#898781" font-family="Menlo, monospace">PLANN DIR</text><text x="407.1" y="254" font-size="10" font-weight="700" text-anchor="end" fill="#0b0b0b">$13k</text><rect x="409.7" y="268" width="11.3" height="11" fill="#e34948" rx="2"/><text x="196" y="273" font-size="9.5" text-anchor="end" fill="#52514e">Legal expenses</text><text x="196" y="283" font-size="7.5" text-anchor="end" fill="#898781" font-family="Menlo, monospace">LEGAL EXPE</text><text x="403.7" y="277" font-size="10" font-weight="700" text-anchor="end" fill="#0b0b0b">$18k</text><rect x="385.0" y="291" width="36.0" height="11" fill="#e34948" rx="2"/><text x="196" y="296" font-size="9.5" text-anchor="end" fill="#52514e">Snow supplies</text><text x="196" y="306" font-size="7.5" text-anchor="end" fill="#898781" font-family="Menlo, monospace">SUPP SNOW</text><text x="379.0" y="300" font-size="10" font-weight="700" text-anchor="end" fill="#0b0b0b">$58k</text><rect x="383.2" y="314" width="37.8" height="11" fill="#e34948" rx="2"/><text x="196" y="319" font-size="9.5" text-anchor="end" fill="#52514e">Health insurance</text><text x="196" y="329" font-size="7.5" text-anchor="end" fill="#898781" font-family="Menlo, monospace">HEALTH INS</text><text x="377.2" y="323" font-size="10" font-weight="700" text-anchor="end" fill="#0b0b0b">$61k</text><rect x="357.5" y="337" width="63.5" height="11" fill="#e34948" rx="2"/><text x="196" y="342" font-size="9.5" text-anchor="end" fill="#52514e">Snow removal wages</text><text x="196" y="352" font-size="7.5" text-anchor="end" fill="#898781" font-family="Menlo, monospace">SNOW REMOV</text><text x="351.5" y="346" font-size="10" font-weight="700" text-anchor="end" fill="#0b0b0b">$103k</text><rect x="334.6" y="360" width="86.4" height="11" fill="#e34948" rx="2"/><text x="196" y="365" font-size="9.5" text-anchor="end" fill="#52514e">Town retiree health insurance</text><text x="196" y="375" font-size="7.5" text-anchor="end" fill="#898781" font-family="Menlo, monospace">TNRETHLTHI</text><text x="328.6" y="369" font-size="10" font-weight="700" text-anchor="end" fill="#0b0b0b">$140k</text><rect x="196" y="394" width="9" height="9" fill="#e34948" rx="2"/><text x="210" y="402" font-size="10" fill="#52514e">Spent past the budget</text><rect x="442.0" y="394" width="9" height="9" fill="#2a78d6" rx="2"/><text x="456.0" y="402" font-size="10" fill="#52514e">Left unspent</text>
</svg>
