<svg xmlns="http://www.w3.org/2000/svg" viewBox="0 0 760 300" width="760" height="300" font-family="system-ui, -apple-system, &quot;Segoe UI&quot;, sans-serif" role="img" aria-label="Unspent appropriations at the close">
<rect width="760" height="300" fill="#ffffff"/>
<text x="16" y="24" font-size="14" font-weight="700" fill="#1f2328">Unspent appropriations at each close</text>
<line x1="70" y1="240" x2="740" y2="240" stroke="#d8dbe0"/>
<rect x="78.0" y="127.9" width="44.8" height="112.1" fill="#2b6cb0"/>
<text x="100.4" y="123.9" font-size="9" text-anchor="middle" fill="#1f2328">$1.4M</text>
<text x="125.8" y="256" font-size="10" text-anchor="middle" fill="#5b6470">FY2021</text>
<rect x="189.7" y="178.6" width="44.8" height="61.4" fill="#2b6cb0"/>
<text x="212.1" y="174.6" font-size="9" text-anchor="middle" fill="#1f2328">$754k</text>
<text x="237.5" y="256" font-size="10" text-anchor="middle" fill="#5b6470">FY2022</text>
<rect x="301.3" y="192.1" width="44.8" height="47.9" fill="#2b6cb0"/>
<text x="323.8" y="188.1" font-size="9" text-anchor="middle" fill="#1f2328">$589k</text>
<rect x="349.2" y="231.3" width="44.8" height="8.7" fill="#dc2626"/>
<text x="371.6" y="227.3" font-size="9" text-anchor="middle" fill="#1f2328">$107k</text>
<text x="349.2" y="256" font-size="10" text-anchor="middle" fill="#5b6470">FY2023</text>
<rect x="413.0" y="140.3" width="44.8" height="99.7" fill="#2b6cb0"/>
<text x="435.4" y="136.3" font-size="9" text-anchor="middle" fill="#1f2328">$1.2M</text>
<rect x="460.8" y="222.4" width="44.8" height="17.6" fill="#dc2626"/>
<text x="483.2" y="218.4" font-size="9" text-anchor="middle" fill="#1f2328">$216k</text>
<text x="460.8" y="256" font-size="10" text-anchor="middle" fill="#5b6470">FY2024</text>
<rect x="524.7" y="40.0" width="44.8" height="200.0" fill="#2b6cb0"/>
<text x="547.1" y="36.0" font-size="9" text-anchor="middle" fill="#1f2328">$2.5M</text>
<rect x="572.5" y="189.0" width="44.8" height="51.0" fill="#dc2626"/>
<text x="594.9" y="185.0" font-size="9" text-anchor="middle" fill="#1f2328">$627k</text>
<text x="572.5" y="256" font-size="10" text-anchor="middle" fill="#5b6470">FY2025</text>
<rect x="684.2" y="200.8" width="44.8" height="39.2" fill="#dc2626"/>
<text x="706.6" y="196.8" font-size="9" text-anchor="middle" fill="#1f2328">$482k</text>
<text x="684.2" y="256" font-size="10" text-anchor="middle" fill="#5b6470">FY2026</text>
<rect x="70" y="278" width="10" height="10" fill="#2b6cb0"/><text x="84" y="287" font-size="10.5" fill="#1f2328">Whole town (state free cash proof)</text>
<rect x="330" y="278" width="10" height="10" fill="#dc2626"/><text x="344" y="287" font-size="10.5" fill="#1f2328">School department 300 (MUNIS, period 13)</text>
</svg>
