<svg xmlns="http://www.w3.org/2000/svg" viewBox="0 0 756 396" width="756"
 height="396" role="img" aria-label="How fast each department grows, against the levy cap. Compound annual change, FY2023 to FY2025. The cap limits the LEVY, not the budget — it is drawn because every board here argues against it."
 font-family='system-ui, -apple-system, "Segoe UI", sans-serif'>
<rect width="756" height="396" fill="#fcfcfb"/>
<g transform="translate(18,18)">
<text x="0" y="15" font-size="13" font-weight="700" fill="#0b0b0b">How fast each department grows, against the levy cap</text>
<text x="0" y="31" font-size="10.5" fill="#52514e">Compound annual change, FY2023 to FY2025. The cap limits the LEVY, not the budget — it is drawn because every board here argues against it.</text>
<line x1="423.5" y1="54.0" x2="423.5" y2="320.0" stroke="#c3c2b7" stroke-width="1"/><rect x="423.5" y="65.7" width="229.0" height="14.2" fill="#e08214" rx="2"/><text x="202" y="76.2" font-size="10" text-anchor="end" fill="#0b0b0b">Solid Waste &amp; Recycling</text><text x="658.5" y="76.2" font-size="9.5" fill="#52514e">+22.6%</text><rect x="423.5" y="87.2" width="129.0" height="14.2" fill="#e08214" rx="2"/><text x="202" y="97.8" font-size="10" text-anchor="end" fill="#0b0b0b">Employee benefits &amp; reserves</text><text x="558.5" y="97.8" font-size="9.5" fill="#52514e">+12.7%</text><rect x="423.5" y="108.7" width="103.8" height="14.2" fill="#e08214" rx="2"/><text x="202" y="119.2" font-size="10" text-anchor="end" fill="#0b0b0b">General Government</text><text x="533.2" y="119.2" font-size="9.5" fill="#52514e">+10.2%</text><rect x="423.5" y="130.2" width="90.8" height="14.2" fill="#e08214" rx="2"/><text x="202" y="140.8" font-size="10" text-anchor="end" fill="#0b0b0b">Health &amp; Sanitation</text><text x="520.2" y="140.8" font-size="9.5" fill="#52514e">+8.9%</text><rect x="423.5" y="151.7" width="89.6" height="14.2" fill="#e08214" rx="2"/><text x="202" y="162.2" font-size="10" text-anchor="end" fill="#0b0b0b">Library</text><text x="519.0" y="162.2" font-size="9.5" fill="#52514e">+8.8%</text><rect x="423.5" y="173.2" width="77.2" height="14.2" fill="#e08214" rx="2"/><text x="202" y="183.8" font-size="10" text-anchor="end" fill="#0b0b0b">Assistance</text><text x="506.6" y="183.8" font-size="9.5" fill="#52514e">+7.6%</text><rect x="423.5" y="194.7" width="76.3" height="14.2" fill="#e08214" rx="2"/><text x="202" y="205.2" font-size="10" text-anchor="end" fill="#0b0b0b">Facilities &amp; Grounds</text><text x="505.8" y="205.2" font-size="9.5" fill="#52514e">+7.5%</text><rect x="423.5" y="216.2" width="47.3" height="14.2" fill="#e08214" rx="2"/><text x="202" y="226.8" font-size="10" text-anchor="end" fill="#0b0b0b">Protection of persons &amp; property</text><text x="476.7" y="226.8" font-size="9.5" fill="#52514e">+4.7%</text><rect x="423.5" y="237.7" width="36.8" height="14.2" fill="#e08214" rx="2"/><text x="202" y="248.2" font-size="10" text-anchor="end" fill="#0b0b0b">Schools</text><text x="466.3" y="248.2" font-size="9.5" fill="#52514e">+3.6%</text><rect x="423.5" y="259.2" width="29.5" height="14.2" fill="#e08214" rx="2"/><text x="202" y="269.8" font-size="10" text-anchor="end" fill="#0b0b0b">Public Works</text><text x="458.9" y="269.8" font-size="9.5" fill="#52514e">+2.9%</text><rect x="423.5" y="280.7" width="16.2" height="14.2" fill="#2a8c6a" rx="2"/><text x="202" y="291.2" font-size="10" text-anchor="end" fill="#0b0b0b">Central Purchasing</text><text x="445.6" y="291.2" font-size="9.5" fill="#52514e">+1.6%</text><rect x="229.4" y="302.2" width="194.1" height="14.2" fill="#2a8c6a" rx="2"/><text x="202" y="312.8" font-size="10" text-anchor="end" fill="#0b0b0b">Maturing Debt &amp; Interest</text><text x="429.5" y="312.8" font-size="9.5" fill="#52514e">-19.1%</text><line x1="448.8" y1="48.0" x2="448.8" y2="324.0" stroke="#184f95" stroke-width="2" stroke-dasharray="5 3"/><text x="453.8" y="44.0" font-size="10" font-weight="700" fill="#184f95">Proposition 2½ — 2.5%</text>
</g>
</svg>
